<?xml version="1.0" encoding="UTF-8" standalone="no"?>
<!-- Created with Inkscape (http://www.inkscape.org/) -->

<svg
   xmlns:dc="http://purl.org/dc/elements/1.1/"
   xmlns:cc="http://creativecommons.org/ns#"
   xmlns:rdf="http://www.w3.org/1999/02/22-rdf-syntax-ns#"
   xmlns:svg="http://www.w3.org/2000/svg"
   xmlns="http://www.w3.org/2000/svg"
   xmlns:sodipodi="http://sodipodi.sourceforge.net/DTD/sodipodi-0.dtd"
   xmlns:inkscape="http://www.inkscape.org/namespaces/inkscape"
   width="210mm"
   height="297mm"
   viewBox="0 0 744.09448819 1052.3622047"
   id="svg2"
   version="1.1"
   inkscape:version="0.91 r13725"
   sodipodi:docname="logo.svg">
  <defs
     id="defs4">
    <filter
       inkscape:collect="always"
       style="color-interpolation-filters:sRGB"
       id="filter4654"
       x="-0.050599146"
       width="1.1011983"
       y="-0.073691133"
       height="1.1473823">
      <feGaussianBlur
         inkscape:collect="always"
         stdDeviation="4.6873777"
         id="feGaussianBlur4656" />
    </filter>
  </defs>
  <sodipodi:namedview
     id="base"
     pagecolor="#ffffff"
     bordercolor="#666666"
     borderopacity="1.0"
     inkscape:pageopacity="0.0"
     inkscape:pageshadow="2"
     inkscape:zoom="1.4"
     inkscape:cx="609.45879"
     inkscape:cy="814.30141"
     inkscape:document-units="px"
     inkscape:current-layer="layer1"
     showgrid="true"
     inkscape:window-width="1859"
     inkscape:window-height="1056"
     inkscape:window-x="61"
     inkscape:window-y="24"
     inkscape:window-maximized="1"
     inkscape:snap-center="false">
    <inkscape:grid
       type="xygrid"
       id="grid4136"
       spacingx="10"
       spacingy="10" />
  </sodipodi:namedview>
  <metadata
     id="metadata7">
    <rdf:RDF>
      <cc:Work
         rdf:about="">
        <dc:format>image/svg+xml</dc:format>
        <dc:type
           rdf:resource="http://purl.org/dc/dcmitype/StillImage" />
        <dc:title></dc:title>
      </cc:Work>
    </rdf:RDF>
  </metadata>
  <g
     inkscape:label="Layer 1"
     inkscape:groupmode="layer"
     id="layer1">
    <g
       id="g4237"
       transform="translate(-483.86307,-13.63706)">
      <rect
         y="3.0765123"
         x="71.071426"
         height="193.57143"
         width="193.57143"
         id="rect4150"
         style="opacity:1;fill:#afe9dd;fill-opacity:1;stroke:none" />
      <circle
         r="50.535713"
         cy="127.89793"
         cx="166.60715"
         id="circle4148"
         style="opacity:1;fill:#006600;fill-opacity:1;stroke:none" />
      <path
         id="circle4194"
         d="m 167.69727,77.416016 a 24.107143,24.107143 0 0 0 -1.26954,7.625 24.107143,24.107143 0 0 0 24.10743,24.107424 24.107143,24.107143 0 0 0 18.49023,-8.70117 50.535713,50.535713 0 0 0 -1.04101,-1.457036 20.178572,20.178572 0 0 1 -9.94922,2.658206 20.178572,20.178572 0 0 1 -20.17774,-20.17969 20.178572,20.178572 0 0 1 0.21289,-2.736328 50.535713,50.535713 0 0 0 -10.37304,-1.316406 z"
         style="opacity:1;fill:#000000;fill-opacity:1;stroke:none"
         inkscape:connector-curvature="0" />
      <circle
         style="opacity:1;fill:#006d00;fill-opacity:1;stroke:none"
         id="circle4146"
         cx="221.42857"
         cy="153.07651"
         r="61.42857" />
      <path
         id="circle4186"
         d="m 197.16406,96.720703 a 61.42857,61.42857 0 0 0 -9.96484,5.408207 20.714285,20.714285 0 0 1 18.51562,20.58984 A 20.714285,20.714285 0 0 1 185,143.43359 a 20.714285,20.714285 0 0 1 -19.86133,-14.87695 61.42857,61.42857 0 0 0 -5.0664,23.08203 36.785713,36.785713 0 0 0 31.71289,18.22266 36.785713,36.785713 0 0 0 36.78711,-36.78516 36.785713,36.785713 0 0 0 -31.40821,-36.355467 z"
         style="opacity:1;fill:#000000;fill-opacity:1;stroke:none"
         inkscape:connector-curvature="0" />
      <circle
         r="88.035713"
         cy="184.32652"
         cx="131.39793"
         id="path4144"
         style="opacity:1;fill:#008000;fill-opacity:1;stroke:none" />
      <path
         id="circle4154"
         d="m 144.55273,97.390625 a 111.52176,111.52176 0 0 0 -88.816402,109.160155 111.52176,111.52176 0 0 0 3.84375,28.50391 88.035713,88.035713 0 0 0 71.818362,37.30664 88.035713,88.035713 0 0 0 30.91211,-5.6543 94.85424,94.85424 0 0 1 -37.37891,-75.30859 94.85424,94.85424 0 0 1 50.11914,-83.44336 88.035713,88.035713 0 0 0 -30.49805,-10.564455 z"
         style="opacity:1;fill:#000000;fill-opacity:1;stroke:none"
         inkscape:connector-curvature="0" />
      <path
         id="path4203"
         d="M 204.62305,87.916016 A 119.24493,119.24493 0 0 0 85.376953,207.16016 119.24493,119.24493 0 0 0 204.62305,326.40625 119.24493,119.24493 0 0 0 323.86719,207.16016 119.24493,119.24493 0 0 0 204.62305,87.916016 Z m -6.31446,4.041015 A 104.85025,104.85025 0 0 1 303.16016,196.80664 104.85025,104.85025 0 0 1 198.30859,301.65625 104.85025,104.85025 0 0 1 93.458984,196.80664 104.85025,104.85025 0 0 1 198.30859,91.957031 Z"
         style="opacity:0.53600003;fill:#00ff00;fill-opacity:1;stroke:none;stroke-width:2.4000001;stroke-miterlimit:4;stroke-dasharray:none;stroke-dashoffset:0;stroke-opacity:1"
         inkscape:connector-curvature="0" />
      <path
         inkscape:connector-curvature="0"
         id="circle4229"
         d="M 187.26758,97.898438 A 30.98214,30.98214 0 0 0 156.28516,128.88086 30.98214,30.98214 0 0 0 187.26758,159.86133 30.98214,30.98214 0 0 0 218.25,128.88086 30.98214,30.98214 0 0 0 187.26758,97.898438 Z m -0.44531,0.71289 A 28.928568,28.928568 0 0 1 215.75,127.54102 28.928568,28.928568 0 0 1 186.82227,156.46875 28.928568,28.928568 0 0 1 157.89258,127.54102 28.928568,28.928568 0 0 1 186.82227,98.611328 Z"
         style="opacity:0.46400003;fill:#cfdb00;fill-opacity:1;stroke:none" />
      <path
         id="circle4232"
         d="m 182.89844,62.449219 a 24.55357,24.55357 0 0 0 -11.38086,20.716797 24.55357,24.55357 0 0 0 24.55469,24.552734 24.55357,24.55357 0 0 0 14.0625,-4.46289 24.55357,24.55357 0 0 1 -13.16993,3.83789 24.55357,24.55357 0 0 1 -24.55468,-24.552734 24.55357,24.55357 0 0 1 10.48828,-20.091797 z"
         style="opacity:0.41700003;fill:#dc6600;fill-opacity:1;stroke:none"
         inkscape:connector-curvature="0" />
    </g>
    <g
       id="g4423"
       transform="translate(-634.28571,298.57143)">
      <rect
         y="71.568909"
         x="230.37236"
         height="180.94452"
         width="222.32997"
         id="rect4348"
         style="opacity:1;fill:#afe9dd;fill-opacity:1;stroke:none" />
      <circle
         style="opacity:1;fill:#006600;fill-opacity:1;stroke:none"
         id="circle4253"
         cx="341.86862"
         cy="239.51979"
         r="50.535713" />
      <path
         inkscape:connector-curvature="0"
         style="opacity:1;fill:#000000;fill-opacity:1;stroke:none"
         d="m 342.95873,189.03787 a 24.107143,24.107143 0 0 0 -1.26954,7.625 24.107143,24.107143 0 0 0 24.10743,24.10743 24.107143,24.107143 0 0 0 18.49023,-8.70117 50.535713,50.535713 0 0 0 -1.04101,-1.45704 20.178572,20.178572 0 0 1 -9.94922,2.65821 20.178572,20.178572 0 0 1 -20.17774,-20.17969 20.178572,20.178572 0 0 1 0.21289,-2.73633 50.535713,50.535713 0 0 0 -10.37304,-1.31641 z"
         id="path4255" />
      <path
         id="path4288"
         d="m 347.40239,189.3738 a 24.55357,24.55357 0 0 0 -0.62304,5.41406 24.55357,24.55357 0 0 0 24.55468,24.55274 24.55357,24.55357 0 0 0 3.13868,-0.23438 24.107143,24.107143 0 0 0 1.63281,-0.70898 24.55357,24.55357 0 0 1 -3.87891,0.31836 24.55357,24.55357 0 0 1 -24.55468,-24.55274 24.55357,24.55357 0 0 1 0.4746,-4.73046 50.535713,50.535713 0 0 0 -0.74414,-0.0586 z"
         style="opacity:1;fill:#ffb900;fill-opacity:1;stroke:none"
         inkscape:connector-curvature="0" />
      <circle
         r="61.42857"
         cy="264.69836"
         cx="396.69003"
         id="circle4257"
         style="opacity:1;fill:#007e00;fill-opacity:1;stroke:none" />
      <path
         inkscape:connector-curvature="0"
         style="opacity:1;fill:#000000;fill-opacity:1;stroke:none"
         d="m 372.42552,208.34256 a 61.42857,61.42857 0 0 0 -9.96484,5.40821 20.714285,20.714285 0 0 1 18.51562,20.58984 20.714285,20.714285 0 0 1 -20.71484,20.71484 20.714285,20.714285 0 0 1 -19.86133,-14.87695 61.42857,61.42857 0 0 0 -5.0664,23.08203 36.785713,36.785713 0 0 0 31.71289,18.22266 36.785713,36.785713 0 0 0 36.78711,-36.78516 36.785713,36.785713 0 0 0 -31.40821,-36.35547 z"
         id="path4259" />
      <path
         id="path4285"
         d="m 368.6856,210.17068 a 61.42857,61.42857 0 0 0 -1.19727,0.58593 28.928568,28.928568 0 0 1 23.52344,28.40625 28.928568,28.928568 0 0 1 -28.92774,28.92774 28.928568,28.928568 0 0 1 -25.55468,-15.4082 61.42857,61.42857 0 0 0 -0.58789,3.65625 30.98214,30.98214 0 0 0 26.58789,15.14453 30.98214,30.98214 0 0 0 30.98242,-30.98047 30.98214,30.98214 0 0 0 -24.82617,-30.33203 z"
         style="opacity:1;fill:#ffb900;fill-opacity:1;stroke:none"
         inkscape:connector-curvature="0" />
      <circle
         style="opacity:1;fill:#009700;fill-opacity:1;stroke:none"
         id="circle4261"
         cx="306.65939"
         cy="295.94839"
         r="88.035713" />
      <path
         inkscape:connector-curvature="0"
         style="opacity:1;fill:#000000;fill-opacity:1;stroke:none"
         d="m 319.81419,209.01248 a 111.52176,111.52176 0 0 0 -88.8164,109.16016 111.52176,111.52176 0 0 0 3.84375,28.50391 88.035713,88.035713 0 0 0 71.81836,37.30664 88.035713,88.035713 0 0 0 30.91211,-5.6543 94.85424,94.85424 0 0 1 -37.37891,-75.30859 94.85424,94.85424 0 0 1 50.11914,-83.44336 88.035713,88.035713 0 0 0 -30.49805,-10.56446 z"
         id="path4263" />
      <path
         id="path4282"
         d="m 329.1231,211.03982 a 119.24493,119.24493 0 0 0 -68.48438,107.74219 119.24493,119.24493 0 0 0 16.29492,59.93945 88.035713,88.035713 0 0 0 23.8418,5.01172 104.85025,104.85025 0 0 1 -32.05469,-75.30469 104.85025,104.85025 0 0 1 63.94141,-96.41992 88.035713,88.035713 0 0 0 -3.53906,-0.96875 z"
         style="opacity:1;fill:#ffb900;fill-opacity:1;stroke:none"
         inkscape:connector-curvature="0" />
      <g
         transform="translate(198.99999,110.04462)"
         id="g4320">
        <path
           style="opacity:1;fill:#ff7e00;fill-opacity:1;stroke:none;stroke-width:2.4000001;stroke-miterlimit:4;stroke-dasharray:none;stroke-dashoffset:0;stroke-opacity:1"
           d="m 79.999999,82.361328 a 10,10 0 0 0 -0.707031,0.02539 10,10 0 0 0 -0.992188,0.121093 10,10 0 0 0 -0.976562,0.21875 10,10 0 0 0 -0.947266,0.314454 10,10 0 0 0 -0.912109,0.408203 10,10 0 0 0 -0.867188,0.498047 10,10 0 0 0 -0.814453,0.582031 10,10 0 0 0 -0.75,0.660156 10,10 0 0 0 -0.681641,0.730469 10,10 0 0 0 -0.605468,0.794922 10,10 0 0 0 -0.521485,0.853515 10,10 0 0 0 -0.435547,0.900391 10,10 0 0 0 -0.341796,0.9375 10,10 0 0 0 -0.248047,0.96875 10,10 0 0 0 -0.101563,0.677734 21.237947,21.237947 0 0 0 -0.08203,1.525391 21.237947,21.237947 0 0 0 0.03711,0.720703 21.237947,21.237947 0 0 0 9.960938,17.269533 21.237947,21.237947 0 0 0 9.933594,-17.197267 21.237947,21.237947 0 0 0 0.0059,-0.08398 10,10 0 0 0 0.03125,-0.599609 21.237947,21.237947 0 0 0 0,-0.109375 21.237947,21.237947 0 0 0 -0.07617,-1.478516 10,10 0 0 0 -0.05273,-0.4375 10,10 0 0 0 -0.220703,-0.974609 10,10 0 0 0 -0.314454,-0.949219 10,10 0 0 0 -0.408203,-0.912109 10,10 0 0 0 -0.498047,-0.867188 10,10 0 0 0 -0.580078,-0.8125 10,10 0 0 0 -0.660156,-0.751953 10,10 0 0 0 -0.732422,-0.68164 10,10 0 0 0 -0.794922,-0.603516 10,10 0 0 0 -0.851562,-0.523437 10,10 0 0 0 -0.900391,-0.433594 10,10 0 0 0 -0.939453,-0.34375 10,10 0 0 0 -0.96875,-0.246094 10,10 0 0 0 -0.988281,-0.150391 10,10 0 0 0 -0.998047,-0.05078 z"
           id="path4317"
           inkscape:connector-curvature="0" />
        <circle
           style="opacity:1;fill:#000000;fill-opacity:1;stroke:none;stroke-width:2.4000001;stroke-miterlimit:4;stroke-dasharray:none;stroke-dashoffset:0;stroke-opacity:1"
           id="path4293"
           cx="80"
           cy="92.362228"
           r="6.875" />
      </g>
      <g
         id="g4324"
         transform="translate(198.99999,110.04462)">
        <path
           inkscape:connector-curvature="0"
           id="path4326"
           d="m 79.999999,82.361328 a 10,10 0 0 0 -0.707031,0.02539 10,10 0 0 0 -0.992188,0.121093 10,10 0 0 0 -0.976562,0.21875 10,10 0 0 0 -0.947266,0.314454 10,10 0 0 0 -0.912109,0.408203 10,10 0 0 0 -0.867188,0.498047 10,10 0 0 0 -0.814453,0.582031 10,10 0 0 0 -0.75,0.660156 10,10 0 0 0 -0.681641,0.730469 10,10 0 0 0 -0.605468,0.794922 10,10 0 0 0 -0.521485,0.853515 10,10 0 0 0 -0.435547,0.900391 10,10 0 0 0 -0.341796,0.9375 10,10 0 0 0 -0.248047,0.96875 10,10 0 0 0 -0.101563,0.677734 21.237947,21.237947 0 0 0 -0.08203,1.525391 21.237947,21.237947 0 0 0 0.03711,0.720703 21.237947,21.237947 0 0 0 9.960938,17.269533 21.237947,21.237947 0 0 0 9.933594,-17.197267 21.237947,21.237947 0 0 0 0.0059,-0.08398 10,10 0 0 0 0.03125,-0.599609 21.237947,21.237947 0 0 0 0,-0.109375 21.237947,21.237947 0 0 0 -0.07617,-1.478516 10,10 0 0 0 -0.05273,-0.4375 10,10 0 0 0 -0.220703,-0.974609 10,10 0 0 0 -0.314454,-0.949219 10,10 0 0 0 -0.408203,-0.912109 10,10 0 0 0 -0.498047,-0.867188 10,10 0 0 0 -0.580078,-0.8125 10,10 0 0 0 -0.660156,-0.751953 10,10 0 0 0 -0.732422,-0.68164 10,10 0 0 0 -0.794922,-0.603516 10,10 0 0 0 -0.851562,-0.523437 10,10 0 0 0 -0.900391,-0.433594 10,10 0 0 0 -0.939453,-0.34375 10,10 0 0 0 -0.96875,-0.246094 10,10 0 0 0 -0.988281,-0.150391 10,10 0 0 0 -0.998047,-0.05078 z"
           style="opacity:1;fill:#ff7e00;fill-opacity:1;stroke:none;stroke-width:2.4000001;stroke-miterlimit:4;stroke-dasharray:none;stroke-dashoffset:0;stroke-opacity:1" />
        <circle
           r="4.7321429"
           cy="92.362228"
           cx="80"
           id="circle4328"
           style="opacity:1;fill:#000000;fill-opacity:1;stroke:none;stroke-width:2.4000001;stroke-miterlimit:4;stroke-dasharray:none;stroke-dashoffset:0;stroke-opacity:1" />
      </g>
      <g
         transform="matrix(0.73172519,0,0,0.73172519,327.42628,127.92161)"
         id="g4336">
        <path
           style="opacity:1;fill:#ff7e00;fill-opacity:1;stroke:none;stroke-width:2.4000001;stroke-miterlimit:4;stroke-dasharray:none;stroke-dashoffset:0;stroke-opacity:1"
           d="m 79.999999,82.361328 a 10,10 0 0 0 -0.707031,0.02539 10,10 0 0 0 -0.992188,0.121093 10,10 0 0 0 -0.976562,0.21875 10,10 0 0 0 -0.947266,0.314454 10,10 0 0 0 -0.912109,0.408203 10,10 0 0 0 -0.867188,0.498047 10,10 0 0 0 -0.814453,0.582031 10,10 0 0 0 -0.75,0.660156 10,10 0 0 0 -0.681641,0.730469 10,10 0 0 0 -0.605468,0.794922 10,10 0 0 0 -0.521485,0.853515 10,10 0 0 0 -0.435547,0.900391 10,10 0 0 0 -0.341796,0.9375 10,10 0 0 0 -0.248047,0.96875 10,10 0 0 0 -0.101563,0.677734 21.237947,21.237947 0 0 0 -0.08203,1.525391 21.237947,21.237947 0 0 0 0.03711,0.720703 21.237947,21.237947 0 0 0 9.960938,17.269533 21.237947,21.237947 0 0 0 9.933594,-17.197267 21.237947,21.237947 0 0 0 0.0059,-0.08398 10,10 0 0 0 0.03125,-0.599609 21.237947,21.237947 0 0 0 0,-0.109375 21.237947,21.237947 0 0 0 -0.07617,-1.478516 10,10 0 0 0 -0.05273,-0.4375 10,10 0 0 0 -0.220703,-0.974609 10,10 0 0 0 -0.314454,-0.949219 10,10 0 0 0 -0.408203,-0.912109 10,10 0 0 0 -0.498047,-0.867188 10,10 0 0 0 -0.580078,-0.8125 10,10 0 0 0 -0.660156,-0.751953 10,10 0 0 0 -0.732422,-0.68164 10,10 0 0 0 -0.794922,-0.603516 10,10 0 0 0 -0.851562,-0.523437 10,10 0 0 0 -0.900391,-0.433594 10,10 0 0 0 -0.939453,-0.34375 10,10 0 0 0 -0.96875,-0.246094 10,10 0 0 0 -0.988281,-0.150391 10,10 0 0 0 -0.998047,-0.05078 z"
           id="path4338"
           inkscape:connector-curvature="0" />
        <circle
           style="opacity:1;fill:#000000;fill-opacity:1;stroke:none;stroke-width:2.4000001;stroke-miterlimit:4;stroke-dasharray:none;stroke-dashoffset:0;stroke-opacity:1"
           id="circle4340"
           cx="80"
           cy="92.362228"
           r="4.7321429" />
      </g>
      <g
         id="g4342"
         transform="matrix(0.56712591,0,0,0.56712591,288.9508,130.76394)">
        <path
           inkscape:connector-curvature="0"
           id="path4344"
           d="m 79.999999,82.361328 a 10,10 0 0 0 -0.707031,0.02539 10,10 0 0 0 -0.992188,0.121093 10,10 0 0 0 -0.976562,0.21875 10,10 0 0 0 -0.947266,0.314454 10,10 0 0 0 -0.912109,0.408203 10,10 0 0 0 -0.867188,0.498047 10,10 0 0 0 -0.814453,0.582031 10,10 0 0 0 -0.75,0.660156 10,10 0 0 0 -0.681641,0.730469 10,10 0 0 0 -0.605468,0.794922 10,10 0 0 0 -0.521485,0.853515 10,10 0 0 0 -0.435547,0.900391 10,10 0 0 0 -0.341796,0.9375 10,10 0 0 0 -0.248047,0.96875 10,10 0 0 0 -0.101563,0.677734 21.237947,21.237947 0 0 0 -0.08203,1.525391 21.237947,21.237947 0 0 0 0.03711,0.720703 21.237947,21.237947 0 0 0 9.960938,17.269533 21.237947,21.237947 0 0 0 9.933594,-17.197267 21.237947,21.237947 0 0 0 0.0059,-0.08398 10,10 0 0 0 0.03125,-0.599609 21.237947,21.237947 0 0 0 0,-0.109375 21.237947,21.237947 0 0 0 -0.07617,-1.478516 10,10 0 0 0 -0.05273,-0.4375 10,10 0 0 0 -0.220703,-0.974609 10,10 0 0 0 -0.314454,-0.949219 10,10 0 0 0 -0.408203,-0.912109 10,10 0 0 0 -0.498047,-0.867188 10,10 0 0 0 -0.580078,-0.8125 10,10 0 0 0 -0.660156,-0.751953 10,10 0 0 0 -0.732422,-0.68164 10,10 0 0 0 -0.794922,-0.603516 10,10 0 0 0 -0.851562,-0.523437 10,10 0 0 0 -0.900391,-0.433594 10,10 0 0 0 -0.939453,-0.34375 10,10 0 0 0 -0.96875,-0.246094 10,10 0 0 0 -0.988281,-0.150391 10,10 0 0 0 -0.998047,-0.05078 z"
           style="opacity:1;fill:#ff7e00;fill-opacity:1;stroke:none;stroke-width:2.4000001;stroke-miterlimit:4;stroke-dasharray:none;stroke-dashoffset:0;stroke-opacity:1" />
        <circle
           r="4.7321429"
           cy="92.362228"
           cx="80"
           id="circle4346"
           style="opacity:1;fill:#000000;fill-opacity:1;stroke:none;stroke-width:2.4000001;stroke-miterlimit:4;stroke-dasharray:none;stroke-dashoffset:0;stroke-opacity:1" />
      </g>
      <rect
         style="opacity:1;fill:#00ba00;fill-opacity:1;stroke:none"
         id="rect4365"
         width="222.32997"
         height="152.66025"
         x="230.37236"
         y="250.87099" />
      <text
         sodipodi:linespacing="125%"
         id="text4367"
         y="141.13414"
         x="310.02328"
         style="font-style:normal;font-weight:normal;font-size:40px;line-height:125%;font-family:sans-serif;letter-spacing:0px;word-spacing:0px;fill:#2b1100;fill-opacity:1;stroke:none;stroke-width:1px;stroke-linecap:butt;stroke-linejoin:miter;stroke-opacity:1"
         xml:space="preserve"><tspan
           style="font-style:normal;font-variant:normal;font-weight:bold;font-stretch:normal;font-size:22.5px;font-family:Roboto;-inkscape-font-specification:'Roboto Bold';fill:#2b1100;fill-opacity:1"
           y="141.13414"
           x="310.02328"
           id="tspan4369"
           sodipodi:role="line">LiftMe</tspan></text>
    </g>
    <g
       id="g4922">
      <rect
         y="-13.627982"
         x="164.65808"
         height="221.8557"
         width="222.32997"
         id="rect4564"
         style="opacity:1;fill:#eceff1;fill-opacity:1;stroke:none" />
      <path
         inkscape:connector-curvature="0"
         id="path4791"
         d="m 358.59828,154.81493 a 18.409266,18.409266 0 0 1 15.33616,21.03803 18.409266,18.409266 0 0 1 -0.007,0.0325 15,15 0 0 1 0.15368,0.016 15,15 0 0 1 12.49697,17.14135 15,15 0 0 1 -0.52547,2.16743 l -91.19378,-14.29021 a 15.378807,15.378807 0 0 1 -0.092,-5.20393 15.378807,15.378807 0 0 1 17.57435,-12.81265 15.378807,15.378807 0 0 1 2.89157,0.76152 25.227795,25.227795 0 0 1 22.81945,-8.23451 25.227795,25.227795 0 0 1 7.34368,2.37648 18.409266,18.409266 0 0 1 13.20246,-2.99217 z"
         style="opacity:1;fill:#b2dfdb;fill-opacity:1;stroke:none;stroke-width:2.4000001;stroke-miterlimit:4;stroke-dasharray:none;stroke-dashoffset:0;stroke-opacity:1" />
      <path
         inkscape:connector-curvature="0"
         id="rect4784"
         d="m 258.76756,134.38412 a 18.409266,18.409266 0 0 0 -18.40821,18.41016 18.409266,18.409266 0 0 0 0.002,0.0332 15,15 0 0 0 -0.1543,-0.008 15,15 0 0 0 -15,15 15,15 0 0 0 0.18359,2.22265 l 92.30664,0 a 15.378807,15.378807 0 0 0 0.89649,-5.12695 15.378807,15.378807 0 0 0 -15.37891,-15.37891 15.378807,15.378807 0 0 0 -2.97461,0.30469 25.227795,25.227795 0 0 0 -21.26953,-11.66797 25.227795,25.227795 0 0 0 -7.62305,1.21094 18.409266,18.409266 0 0 0 -12.58007,-5 z"
         style="opacity:1;fill:#b2dfdb;fill-opacity:1;stroke:none;stroke-width:2.4000001;stroke-miterlimit:4;stroke-dasharray:none;stroke-dashoffset:0;stroke-opacity:1" />
      <circle
         r="50.535713"
         cy="195.23409"
         cx="276.15433"
         id="circle4454"
         style="opacity:1;fill:#1b5e20;fill-opacity:1;stroke:none" />
      <path
         id="path4456"
         d="m 277.24445,144.75216 a 24.107143,24.107143 0 0 0 -1.26954,7.625 24.107143,24.107143 0 0 0 24.10743,24.10743 24.107143,24.107143 0 0 0 18.49023,-8.70117 50.535713,50.535713 0 0 0 -1.04101,-1.45704 20.178572,20.178572 0 0 1 -9.94922,2.65821 20.178572,20.178572 0 0 1 -20.17774,-20.17969 20.178572,20.178572 0 0 1 0.21289,-2.73633 50.535713,50.535713 0 0 0 -10.37304,-1.31641 z"
         style="opacity:1;fill:#000000;fill-opacity:1;stroke:none"
         inkscape:connector-curvature="0" />
      <path
         inkscape:connector-curvature="0"
         style="opacity:1;fill:#ffeb3b;fill-opacity:1;stroke:none"
         d="m 281.68811,145.08809 a 24.55357,24.55357 0 0 0 -0.62304,5.41406 24.55357,24.55357 0 0 0 24.55468,24.55274 24.55357,24.55357 0 0 0 3.13868,-0.23438 24.107143,24.107143 0 0 0 1.63281,-0.70898 24.55357,24.55357 0 0 1 -3.87891,0.31836 24.55357,24.55357 0 0 1 -24.55468,-24.55274 24.55357,24.55357 0 0 1 0.4746,-4.73046 50.535713,50.535713 0 0 0 -0.74414,-0.0586 z"
         id="path4458" />
      <path
         inkscape:connector-curvature="0"
         id="rect4452"
         d="m 330.97656,158.98438 a 61.42857,61.42857 0 0 0 -59.79101,47.60156 l 115.80273,0 0,-11.26953 a 61.42857,61.42857 0 0 0 -56.01172,-36.33203 z"
         style="opacity:1;fill:#2e7d32;fill-opacity:1;stroke:none" />
      <path
         inkscape:connector-curvature="0"
         id="path4562"
         d="m 386.98828,245.50781 0,-38.92187 -115.80273,0 a 61.42857,61.42857 0 0 0 -1.63867,13.82617 61.42857,61.42857 0 0 0 61.42968,61.42969 61.42857,61.42857 0 0 0 56.01172,-36.33399 z"
         style="opacity:1;fill:#007e00;fill-opacity:1;stroke:none" />
      <path
         id="path4462"
         d="m 306.71124,164.05685 a 61.42857,61.42857 0 0 0 -9.96484,5.40821 20.714285,20.714285 0 0 1 18.51562,20.58984 20.714285,20.714285 0 0 1 -20.71484,20.71484 20.714285,20.714285 0 0 1 -19.86133,-14.87695 61.42857,61.42857 0 0 0 -5.0664,23.08203 36.785713,36.785713 0 0 0 31.71289,18.22266 36.785713,36.785713 0 0 0 36.78711,-36.78516 36.785713,36.785713 0 0 0 -31.40821,-36.35547 z"
         style="opacity:1;fill:#000000;fill-opacity:1;stroke:none"
         inkscape:connector-curvature="0" />
      <path
         inkscape:connector-curvature="0"
         style="opacity:1;fill:#ffeb3b;fill-opacity:1;stroke:none"
         d="m 302.97132,165.88497 a 61.42857,61.42857 0 0 0 -1.19727,0.58593 28.928568,28.928568 0 0 1 23.52344,28.40625 28.928568,28.928568 0 0 1 -28.92774,28.92774 28.928568,28.928568 0 0 1 -25.55468,-15.4082 61.42857,61.42857 0 0 0 -0.58789,3.65625 30.98214,30.98214 0 0 0 26.58789,15.14453 30.98214,30.98214 0 0 0 30.98242,-30.98047 30.98214,30.98214 0 0 0 -24.82617,-30.33203 z"
         id="path4464" />
      <path
         inkscape:connector-curvature="0"
         id="path4555"
         d="m 316.45312,206.58594 -151.00781,0 a 88.035713,88.035713 0 0 0 -0.78711,1.28515 l 0,87.50977 a 88.035713,88.035713 0 0 0 76.28711,44.31836 88.035713,88.035713 0 0 0 88.03516,-88.03711 88.035713,88.035713 0 0 0 -12.52735,-45.07617 z"
         style="opacity:1;fill:#009700;fill-opacity:1;stroke:none" />
      <path
         style="opacity:1;fill:#b2dfdb;fill-opacity:1;stroke:none;stroke-width:2.4000001;stroke-miterlimit:4;stroke-dasharray:none;stroke-dashoffset:0;stroke-opacity:1"
         d="m 228.71726,164.18362 a 18.409266,18.409266 0 0 1 18.40821,18.41016 18.409266,18.409266 0 0 1 -0.002,0.0332 15,15 0 0 1 0.1543,-0.008 15,15 0 0 1 15,15 15,15 0 0 1 -0.18359,2.22265 l -92.30664,0 a 15.378807,15.378807 0 0 1 -0.89649,-5.12695 15.378807,15.378807 0 0 1 15.37891,-15.37891 15.378807,15.378807 0 0 1 2.97461,0.30469 25.227795,25.227795 0 0 1 21.26953,-11.66797 25.227795,25.227795 0 0 1 7.62305,1.21094 18.409266,18.409266 0 0 1 12.58007,-5 z"
         id="path4789"
         inkscape:connector-curvature="0" />
      <path
         inkscape:connector-curvature="0"
         id="circle4466"
         d="m 240.94531,163.62695 a 88.035713,88.035713 0 0 0 -75.5,42.95899 l 151.00781,0 a 88.035713,88.035713 0 0 0 -75.50781,-42.95899 z"
         style="opacity:1;fill:#388e3c;fill-opacity:1;stroke:none" />
      <path
         id="path4468"
         d="m 254.09991,164.72677 a 111.52176,111.52176 0 0 0 -88.8164,109.16016 111.52176,111.52176 0 0 0 3.84375,28.50391 88.035713,88.035713 0 0 0 71.81836,37.30664 88.035713,88.035713 0 0 0 30.91211,-5.6543 94.85424,94.85424 0 0 1 -37.37891,-75.30859 94.85424,94.85424 0 0 1 50.11914,-83.44336 88.035713,88.035713 0 0 0 -30.49805,-10.56446 z"
         style="opacity:1;fill:#000000;fill-opacity:1;stroke:none"
         inkscape:connector-curvature="0" />
      <path
         inkscape:connector-curvature="0"
         style="opacity:1;fill:#ffeb3b;fill-opacity:1;stroke:none"
         d="m 263.40882,166.75411 a 119.24493,119.24493 0 0 0 -68.48438,107.74219 119.24493,119.24493 0 0 0 16.29492,59.93945 88.035713,88.035713 0 0 0 23.8418,5.01172 104.85025,104.85025 0 0 1 -32.05469,-75.30469 104.85025,104.85025 0 0 1 63.94141,-96.41992 88.035713,88.035713 0 0 0 -3.53906,-0.96875 z"
         id="path4470" />
      <g
         id="g4472"
         transform="translate(133.28571,65.758907)">
        <path
           inkscape:connector-curvature="0"
           id="path4474"
           d="m 79.999999,82.361328 a 10,10 0 0 0 -0.707031,0.02539 10,10 0 0 0 -0.992188,0.121093 10,10 0 0 0 -0.976562,0.21875 10,10 0 0 0 -0.947266,0.314454 10,10 0 0 0 -0.912109,0.408203 10,10 0 0 0 -0.867188,0.498047 10,10 0 0 0 -0.814453,0.582031 10,10 0 0 0 -0.75,0.660156 10,10 0 0 0 -0.681641,0.730469 10,10 0 0 0 -0.605468,0.794922 10,10 0 0 0 -0.521485,0.853515 10,10 0 0 0 -0.435547,0.900391 10,10 0 0 0 -0.341796,0.9375 10,10 0 0 0 -0.248047,0.96875 10,10 0 0 0 -0.101563,0.677734 21.237947,21.237947 0 0 0 -0.08203,1.525391 21.237947,21.237947 0 0 0 0.03711,0.720703 21.237947,21.237947 0 0 0 9.960938,17.269533 21.237947,21.237947 0 0 0 9.933594,-17.197267 21.237947,21.237947 0 0 0 0.0059,-0.08398 10,10 0 0 0 0.03125,-0.599609 21.237947,21.237947 0 0 0 0,-0.109375 21.237947,21.237947 0 0 0 -0.07617,-1.478516 10,10 0 0 0 -0.05273,-0.4375 10,10 0 0 0 -0.220703,-0.974609 10,10 0 0 0 -0.314454,-0.949219 10,10 0 0 0 -0.408203,-0.912109 10,10 0 0 0 -0.498047,-0.867188 10,10 0 0 0 -0.580078,-0.8125 10,10 0 0 0 -0.660156,-0.751953 10,10 0 0 0 -0.732422,-0.68164 10,10 0 0 0 -0.794922,-0.603516 10,10 0 0 0 -0.851562,-0.523437 10,10 0 0 0 -0.900391,-0.433594 10,10 0 0 0 -0.939453,-0.34375 10,10 0 0 0 -0.96875,-0.246094 10,10 0 0 0 -0.988281,-0.150391 10,10 0 0 0 -0.998047,-0.05078 z"
           style="opacity:1;fill:#ff7e00;fill-opacity:1;stroke:none;stroke-width:2.4000001;stroke-miterlimit:4;stroke-dasharray:none;stroke-dashoffset:0;stroke-opacity:1" />
        <circle
           r="6.875"
           cy="92.362228"
           cx="80"
           id="circle4476"
           style="opacity:1;fill:#000000;fill-opacity:1;stroke:none;stroke-width:2.4000001;stroke-miterlimit:4;stroke-dasharray:none;stroke-dashoffset:0;stroke-opacity:1" />
      </g>
      <path
         inkscape:connector-curvature="0"
         id="path4480"
         d="m 213.28571,148.12023 a 10,10 0 0 0 -0.70703,0.0254 10,10 0 0 0 -0.99219,0.1211 10,10 0 0 0 -0.97656,0.21875 10,10 0 0 0 -0.94727,0.31445 10,10 0 0 0 -0.91211,0.4082 10,10 0 0 0 -0.86719,0.49805 10,10 0 0 0 -0.81445,0.58203 10,10 0 0 0 -0.75,0.66016 10,10 0 0 0 -0.68164,0.73047 10,10 0 0 0 -0.60547,0.79492 10,10 0 0 0 -0.52148,0.85351 10,10 0 0 0 -0.43555,0.9004 10,10 0 0 0 -0.3418,0.9375 10,10 0 0 0 -0.24804,0.96875 10,10 0 0 0 -0.10157,0.67773 21.237947,21.237947 0 0 0 -0.082,1.52539 21.237947,21.237947 0 0 0 0.0371,0.7207 21.237947,21.237947 0 0 0 9.96094,17.26954 21.237947,21.237947 0 0 0 9.9336,-17.19727 21.237947,21.237947 0 0 0 0.006,-0.084 10,10 0 0 0 0.0312,-0.59961 21.237947,21.237947 0 0 0 0,-0.10937 21.237947,21.237947 0 0 0 -0.0762,-1.47852 10,10 0 0 0 -0.0527,-0.4375 10,10 0 0 0 -0.22071,-0.97461 10,10 0 0 0 -0.31445,-0.94922 10,10 0 0 0 -0.4082,-0.91211 10,10 0 0 0 -0.49805,-0.86719 10,10 0 0 0 -0.58008,-0.8125 10,10 0 0 0 -0.66015,-0.75195 10,10 0 0 0 -0.73243,-0.68164 10,10 0 0 0 -0.79492,-0.60351 10,10 0 0 0 -0.85156,-0.52344 10,10 0 0 0 -0.90039,-0.4336 10,10 0 0 0 -0.93945,-0.34375 10,10 0 0 0 -0.96875,-0.24609 10,10 0 0 0 -0.98829,-0.15039 10,10 0 0 0 -0.99804,-0.0508 z"
         style="opacity:1;fill:#ff9800;fill-opacity:1;stroke:none;stroke-width:2.4000001;stroke-miterlimit:4;stroke-dasharray:none;stroke-dashoffset:0;stroke-opacity:1" />
      <circle
         r="4.7321429"
         cy="158.12114"
         cx="213.28571"
         id="circle4482"
         style="opacity:1;fill:#000000;fill-opacity:1;stroke:none;stroke-width:2.4000001;stroke-miterlimit:4;stroke-dasharray:none;stroke-dashoffset:0;stroke-opacity:1" />
      <path
         style="opacity:1;fill:#ff9800;fill-opacity:1;stroke:none;stroke-width:2.4000001;stroke-miterlimit:4;stroke-dasharray:none;stroke-dashoffset:0;stroke-opacity:1"
         d="m 320.25001,143.90176 a 7.3172519,7.3172519 0 0 0 -0.51735,0.0186 7.3172519,7.3172519 0 0 0 -0.72601,0.0886 7.3172519,7.3172519 0 0 0 -0.71457,0.16007 7.3172519,7.3172519 0 0 0 -0.69314,0.23009 7.3172519,7.3172519 0 0 0 -0.66741,0.29869 7.3172519,7.3172519 0 0 0 -0.63455,0.36444 7.3172519,7.3172519 0 0 0 -0.59595,0.42588 7.3172519,7.3172519 0 0 0 -0.5488,0.48305 7.3172519,7.3172519 0 0 0 -0.49877,0.53451 7.3172519,7.3172519 0 0 0 -0.44304,0.58166 7.3172519,7.3172519 0 0 0 -0.38158,0.62454 7.3172519,7.3172519 0 0 0 -0.3187,0.65884 7.3172519,7.3172519 0 0 0 -0.2501,0.68599 7.3172519,7.3172519 0 0 0 -0.1815,0.70886 7.3172519,7.3172519 0 0 0 -0.0743,0.49592 15.540341,15.540341 0 0 0 -0.06,1.11616 15.540341,15.540341 0 0 0 0.0271,0.52736 15.540341,15.540341 0 0 0 7.28867,12.63655 15.540341,15.540341 0 0 0 7.26866,-12.58367 15.540341,15.540341 0 0 0 0.004,-0.0614 7.3172519,7.3172519 0 0 0 0.0229,-0.43875 15.540341,15.540341 0 0 0 0,-0.08 15.540341,15.540341 0 0 0 -0.0557,-1.08187 7.3172519,7.3172519 0 0 0 -0.0386,-0.32013 7.3172519,7.3172519 0 0 0 -0.1615,-0.71315 7.3172519,7.3172519 0 0 0 -0.23009,-0.69456 7.3172519,7.3172519 0 0 0 -0.2987,-0.66742 7.3172519,7.3172519 0 0 0 -0.36443,-0.63454 7.3172519,7.3172519 0 0 0 -0.42446,-0.59453 7.3172519,7.3172519 0 0 0 -0.48305,-0.55022 7.3172519,7.3172519 0 0 0 -0.53593,-0.49877 7.3172519,7.3172519 0 0 0 -0.58167,-0.44161 7.3172519,7.3172519 0 0 0 -0.6231,-0.38301 7.3172519,7.3172519 0 0 0 -0.65884,-0.31728 7.3172519,7.3172519 0 0 0 -0.68742,-0.25153 7.3172519,7.3172519 0 0 0 -0.70886,-0.18007 7.3172519,7.3172519 0 0 0 -0.72315,-0.11004 7.3172519,7.3172519 0 0 0 -0.7303,-0.0372 z"
         id="path4486"
         inkscape:connector-curvature="0" />
      <circle
         style="opacity:1;fill:#000000;fill-opacity:1;stroke:none;stroke-width:2.4000001;stroke-miterlimit:4;stroke-dasharray:none;stroke-dashoffset:0;stroke-opacity:1"
         id="circle4488"
         cx="320.25"
         cy="151.21967"
         r="3.4626281" />
      <path
         inkscape:connector-curvature="0"
         id="path4492"
         d="m 268.60659,133.18747 a 5.6712591,5.6712591 0 0 0 -0.40097,0.0144 5.6712591,5.6712591 0 0 0 -0.5627,0.0687 5.6712591,5.6712591 0 0 0 -0.55383,0.12406 5.6712591,5.6712591 0 0 0 -0.53722,0.17834 5.6712591,5.6712591 0 0 0 -0.51728,0.2315 5.6712591,5.6712591 0 0 0 -0.49181,0.28246 5.6712591,5.6712591 0 0 0 -0.46189,0.33008 5.6712591,5.6712591 0 0 0 -0.42535,0.37439 5.6712591,5.6712591 0 0 0 -0.38658,0.41427 5.6712591,5.6712591 0 0 0 -0.34337,0.45082 5.6712591,5.6712591 0 0 0 -0.29575,0.48405 5.6712591,5.6712591 0 0 0 -0.24701,0.51064 5.6712591,5.6712591 0 0 0 -0.19384,0.53168 5.6712591,5.6712591 0 0 0 -0.14067,0.5494 5.6712591,5.6712591 0 0 0 -0.0576,0.38436 12.04459,12.04459 0 0 0 -0.0465,0.86509 12.04459,12.04459 0 0 0 0.021,0.40873 12.04459,12.04459 0 0 0 5.64911,9.794 12.04459,12.04459 0 0 0 5.6336,-9.75302 12.04459,12.04459 0 0 0 0.003,-0.0476 5.6712591,5.6712591 0 0 0 0.0177,-0.34006 12.04459,12.04459 0 0 0 0,-0.062 12.04459,12.04459 0 0 0 -0.0432,-0.8385 5.6712591,5.6712591 0 0 0 -0.0299,-0.24812 5.6712591,5.6712591 0 0 0 -0.12516,-0.55273 5.6712591,5.6712591 0 0 0 -0.17834,-0.53832 5.6712591,5.6712591 0 0 0 -0.2315,-0.51728 5.6712591,5.6712591 0 0 0 -0.28246,-0.49181 5.6712591,5.6712591 0 0 0 -0.32897,-0.46079 5.6712591,5.6712591 0 0 0 -0.3744,-0.42645 5.6712591,5.6712591 0 0 0 -0.41537,-0.38658 5.6712591,5.6712591 0 0 0 -0.45082,-0.34226 5.6712591,5.6712591 0 0 0 -0.48295,-0.29686 5.6712591,5.6712591 0 0 0 -0.51063,-0.2459 5.6712591,5.6712591 0 0 0 -0.53279,-0.19495 5.6712591,5.6712591 0 0 0 -0.5494,-0.13957 5.6712591,5.6712591 0 0 0 -0.56048,-0.0853 5.6712591,5.6712591 0 0 0 -0.56602,-0.0288 z"
         style="opacity:1;fill:#ff9800;fill-opacity:1;stroke:none;stroke-width:2.4000001;stroke-miterlimit:4;stroke-dasharray:none;stroke-dashoffset:0;stroke-opacity:1" />
      <circle
         r="2.6837208"
         cy="138.85924"
         cx="268.6066"
         id="circle4494"
         style="opacity:1;fill:#000000;fill-opacity:1;stroke:none;stroke-width:2.4000001;stroke-miterlimit:4;stroke-dasharray:none;stroke-dashoffset:0;stroke-opacity:1" />
      <rect
         y="202.58528"
         x="164.65808"
         height="152.66025"
         width="222.32997"
         id="rect4572"
         style="opacity:0.33600003;fill:#007800;fill-opacity:1;stroke:none;filter:url(#filter4654)" />
      <rect
         style="opacity:1;fill:#4caf50;fill-opacity:1;stroke:none"
         id="rect4570"
         width="222.32997"
         height="152.66025"
         x="164.65808"
         y="204.58528" />
      <text
         xml:space="preserve"
         style="font-style:normal;font-weight:normal;font-size:40px;line-height:125%;font-family:sans-serif;letter-spacing:0px;word-spacing:0px;fill:#333333;fill-opacity:1;stroke:none;stroke-width:1px;stroke-linecap:butt;stroke-linejoin:miter;stroke-opacity:1"
         x="205.73758"
         y="89.562714"
         id="text4498"
         sodipodi:linespacing="125%"><tspan
           sodipodi:role="line"
           id="tspan4500"
           x="205.73758"
           y="89.562714"
           style="font-style:normal;font-variant:normal;font-weight:bold;font-stretch:normal;font-size:50px;font-family:Roboto;-inkscape-font-specification:'Roboto Bold';fill:#333333;fill-opacity:1">LiftMe</tspan></text>
    </g>
  </g>
</svg>
