<?xml version="1.0" encoding="UTF-8" standalone="no"?>
<!-- Created with Inkscape (http://www.inkscape.org/) -->

<svg
   xmlns:dc="http://purl.org/dc/elements/1.1/"
   xmlns:cc="http://creativecommons.org/ns#"
   xmlns:rdf="http://www.w3.org/1999/02/22-rdf-syntax-ns#"
   xmlns:svg="http://www.w3.org/2000/svg"
   xmlns="http://www.w3.org/2000/svg"
   xmlns:sodipodi="http://sodipodi.sourceforge.net/DTD/sodipodi-0.dtd"
   xmlns:inkscape="http://www.inkscape.org/namespaces/inkscape"
   width="210mm"
   height="297mm"
   viewBox="0 0 744.09448819 1052.3622047"
   id="svg2"
   version="1.1"
   inkscape:version="0.91 r13725"
   sodipodi:docname="logo.svg">
  <defs
     id="defs4" />
  <sodipodi:namedview
     id="base"
     pagecolor="#ffffff"
     bordercolor="#666666"
     borderopacity="1.0"
     inkscape:pageopacity="0.0"
     inkscape:pageshadow="2"
     inkscape:zoom="3.959798"
     inkscape:cx="209.50004"
     inkscape:cy="904.31873"
     inkscape:document-units="px"
     inkscape:current-layer="layer1"
     showgrid="true"
     inkscape:window-width="1859"
     inkscape:window-height="1056"
     inkscape:window-x="61"
     inkscape:window-y="24"
     inkscape:window-maximized="1">
    <inkscape:grid
       type="xygrid"
       id="grid4136"
       spacingx="10"
       spacingy="10" />
  </sodipodi:namedview>
  <metadata
     id="metadata7">
    <rdf:RDF>
      <cc:Work
         rdf:about="">
        <dc:format>image/svg+xml</dc:format>
        <dc:type
           rdf:resource="http://purl.org/dc/dcmitype/StillImage" />
        <dc:title></dc:title>
      </cc:Work>
    </rdf:RDF>
  </metadata>
  <g
     inkscape:label="Layer 1"
     inkscape:groupmode="layer"
     id="layer1">
    <rect
       style="opacity:1;fill:#afe9dd;fill-opacity:1;stroke:none"
       id="rect4150"
       width="193.57143"
       height="193.57143"
       x="71.071426"
       y="3.0765123" />
    <circle
       style="opacity:1;fill:#006600;fill-opacity:1;stroke:none"
       id="circle4148"
       cx="166.60715"
       cy="127.89793"
       r="50.535713" />
    <path
       style="opacity:1;fill:#000000;fill-opacity:1;stroke:none"
       d="M 167.69727 77.416016 A 24.107143 24.107143 0 0 0 166.42773 85.041016 A 24.107143 24.107143 0 0 0 190.53516 109.14844 A 24.107143 24.107143 0 0 0 209.02539 100.44727 A 50.535713 50.535713 0 0 0 207.98438 98.990234 A 20.178572 20.178572 0 0 1 198.03516 101.64844 A 20.178572 20.178572 0 0 1 177.85742 81.46875 A 20.178572 20.178572 0 0 1 178.07031 78.732422 A 50.535713 50.535713 0 0 0 167.69727 77.416016 z "
       id="circle4194" />
    <circle
       r="61.42857"
       cy="153.07651"
       cx="221.42857"
       id="circle4146"
       style="opacity:1;fill:#006d00;fill-opacity:1;stroke:none" />
    <path
       style="opacity:1;fill:#000000;fill-opacity:1;stroke:none"
       d="M 197.16406 96.720703 A 61.42857 61.42857 0 0 0 187.19922 102.12891 A 20.714285 20.714285 0 0 1 205.71484 122.71875 A 20.714285 20.714285 0 0 1 185 143.43359 A 20.714285 20.714285 0 0 1 165.13867 128.55664 A 61.42857 61.42857 0 0 0 160.07227 151.63867 A 36.785713 36.785713 0 0 0 191.78516 169.86133 A 36.785713 36.785713 0 0 0 228.57227 133.07617 A 36.785713 36.785713 0 0 0 197.16406 96.720703 z "
       id="circle4186" />
    <circle
       style="opacity:1;fill:#008000;fill-opacity:1;stroke:none"
       id="path4144"
       cx="131.39793"
       cy="184.32652"
       r="88.035713" />
    <path
       style="opacity:1;fill:#000000;fill-opacity:1;stroke:none"
       d="M 144.55273 97.390625 A 111.52176 111.52176 0 0 0 55.736328 206.55078 A 111.52176 111.52176 0 0 0 59.580078 235.05469 A 88.035713 88.035713 0 0 0 131.39844 272.36133 A 88.035713 88.035713 0 0 0 162.31055 266.70703 A 94.85424 94.85424 0 0 1 124.93164 191.39844 A 94.85424 94.85424 0 0 1 175.05078 107.95508 A 88.035713 88.035713 0 0 0 144.55273 97.390625 z "
       id="circle4154" />
    <path
       style="opacity:0.53600003;fill:#00ff00;fill-opacity:1;stroke:none;stroke-width:2.4000001;stroke-miterlimit:4;stroke-dasharray:none;stroke-dashoffset:0;stroke-opacity:1"
       d="M 204.62305 87.916016 A 119.24493 119.24493 0 0 0 85.376953 207.16016 A 119.24493 119.24493 0 0 0 204.62305 326.40625 A 119.24493 119.24493 0 0 0 323.86719 207.16016 A 119.24493 119.24493 0 0 0 204.62305 87.916016 z M 198.30859 91.957031 A 104.85025 104.85025 0 0 1 303.16016 196.80664 A 104.85025 104.85025 0 0 1 198.30859 301.65625 A 104.85025 104.85025 0 0 1 93.458984 196.80664 A 104.85025 104.85025 0 0 1 198.30859 91.957031 z "
       id="path4203" />
    <path
       style="opacity:0.46400003;fill:#cfdb00;fill-opacity:1;stroke:none"
       d="M 187.26758,97.898438 A 30.98214,30.98214 0 0 0 156.28516,128.88086 30.98214,30.98214 0 0 0 187.26758,159.86133 30.98214,30.98214 0 0 0 218.25,128.88086 30.98214,30.98214 0 0 0 187.26758,97.898438 Z m -0.44531,0.71289 A 28.928568,28.928568 0 0 1 215.75,127.54102 28.928568,28.928568 0 0 1 186.82227,156.46875 28.928568,28.928568 0 0 1 157.89258,127.54102 28.928568,28.928568 0 0 1 186.82227,98.611328 Z"
       id="circle4229"
       inkscape:connector-curvature="0" />
    <path
       style="opacity:0.41700003;fill:#dc6600;fill-opacity:1;stroke:none"
       d="M 182.89844 62.449219 A 24.55357 24.55357 0 0 0 171.51758 83.166016 A 24.55357 24.55357 0 0 0 196.07227 107.71875 A 24.55357 24.55357 0 0 0 210.13477 103.25586 A 24.55357 24.55357 0 0 1 196.96484 107.09375 A 24.55357 24.55357 0 0 1 172.41016 82.541016 A 24.55357 24.55357 0 0 1 182.89844 62.449219 z "
       id="circle4232" />
  </g>
</svg>
